# Blender v2.79 (sub 0) OBJ File: 'untitled.blend'
# www.blender.org
mtllib flatWall1.mtl
o cube.000
v 1.000000 -1.000000 -1.000000
v 1.000000 1.000000 -1.000000
v 1.000000 1.000000 1.000000
v 1.000000 -1.000000 1.000000
v 1.000000 1.000000 1.000000
v 1.000000 1.000000 -1.000000
v 1.000000 1.000000 -1.000000
v 1.000000 -1.000000 -1.000000
v 1.000000 -1.000000 1.000000
v 1.000000 1.000000 1.000000
vt 1.0000000 0.000100
vt 1.0000000 1.0000000
vt 0.000000 1.0000000
vt 0.000000 0.000100
vn 1.0000 0.0000 0.0000
usemtl None.001
s 1
f 1/1/1 2/2/1 3/3/1
f 4/4/1 1/1/1 3/3/1
